<?xml version="1.0" encoding="UTF-8" standalone="no"?>
<svg width="30" height="30" version="1.1" viewBox="0 0 30 30" xmlns="http://www.w3.org/2000/svg">
 <g transform="matrix(0.02603615,0,0,0.02603459,0.00318721,0.00317345)">
  <path d="m 631.89981,808.92995 c -4.87904,-0.71337 -8.61424,-4.84269 -10.45376,-11.55667 -3.0248,-11.04 -2.68141,-26.73088 1.7616,-80.50032 0.96377,-11.66384 1.75235,-21.48954 1.75235,-21.83482 0,-0.62284 -1.36704,-0.62864 -172.72,-0.73148 l -172.72,-0.10372 -4,-0.6807 c -30.76543,-5.23558 -53.03127,-25.32198 -56.61266,-51.0713 -0.73223,-5.26451 -0.46068,-130.36435 0.29253,-134.7702 3.87406,-22.6608 24.06778,-42.161 49.76013,-48.0512 8.76196,-2.00877 -7.51914,-1.83613 182.98269,-1.94013 l 173.38272,-0.0946 -0.18909,-1.6774 c -0.55818,-4.95191 -4.15066,-52.62048 -4.63616,-61.51738 -2.09786,-38.4432 1.55357,-51.34368 14.54634,-51.3919 15.964,-0.0593 43.12857,18.33577 132.7935,89.92368 19.13187,15.27478 54.04992,41.97808 105.44,80.6344 31.84746,23.95612 37.7495,28.7574 46.75488,38.03504 22.02992,22.6959 18.07789,36.27769 -19.07488,65.55433 -2.464,1.94167 -14.704,10.99629 -27.2,20.12144 -62.74538,45.81946 -87.82765,64.65117 -107.2545,80.52647 -84.06288,68.69472 -112.70227,88.80163 -129.80867,91.1351 -1.37673,0.18778 -2.60073,0.32387 -2.72,0.30243 -0.11926,-0.0214 -1.05392,-0.16144 -2.07702,-0.31104 z" style="fill:#e6e6e6;fill-opacity:0.8;stroke-width:0.32" />
  <path d="M 552.32,1151.6598 C 223.51046,1137.5042 -27.331463,851.16598 2.2482935,523.7481 27.635985,242.73213 256.41957,19.591581 538.08,1.1328931 884.71779,-21.584102 1173.58,267.27804 1150.8672,613.92 1130.5114,924.59078 862.88358,1165.0298 552.32,1151.6598 Z m 84.37683,-342.72124 c 17.1064,-2.33347 45.74579,-22.44038 129.80867,-91.1351 19.42685,-15.8753 44.50912,-34.70701 107.2545,-80.52647 12.496,-9.12515 24.736,-18.17977 27.2,-20.12144 37.15277,-29.27664 41.1048,-42.85843 19.07488,-65.55433 C 911.0295,542.32358 905.12746,537.5223 873.28,513.56618 821.88992,474.90986 786.97187,448.20656 767.84,432.93178 756.928,424.21971 740.656,411.33386 731.68,404.29654 630.23814,324.76461 616.63405,323.55366 620.50016,394.4 c 0.4855,8.8969 4.07798,56.56547 4.63616,61.51738 l 0.18909,1.6774 -173.38272,0.0946 c -190.50183,0.104 -174.22073,-0.0686 -182.98269,1.94013 -25.69235,5.8902 -45.88607,25.3904 -49.76013,48.0512 -0.75321,4.40585 -1.02476,129.50569 -0.29253,134.7702 3.58139,25.74932 25.84723,45.83572 56.61266,51.0713 l 4,0.6807 172.72,0.10372 c 171.35296,0.10284 172.72,0.10864 172.72,0.73148 0,0.34528 -0.78858,10.17098 -1.75235,21.83482 -4.44301,53.76944 -4.7864,69.46032 -1.7616,80.50032 1.83952,6.71398 5.57472,10.8433 10.45376,11.55667 1.0231,0.1496 1.95776,0.28957 2.07702,0.31104 0.11927,0.0214 1.34327,-0.11465 2.72,-0.30243 z" style="fill:#494949;fill-opacity:0.95;stroke-width:0.32" />
  </g>
</svg>
